<svg width="31" height="44" viewBox="0 0 31 44" fill="none" xmlns="http://www.w3.org/2000/svg">
<g clip-path="url(#clip0_0_113)">
<path d="M15.4962 -7.61927e-05C15.7804 -0.00331204 15.9652 0.164952 16.0485 0.401169C16.1641 0.729069 16.2441 1.07207 16.3089 1.41507C16.7077 3.52484 17.0957 5.63569 17.4912 7.74547C17.8867 9.85524 18.2812 11.9661 18.6908 14.0726C18.828 14.7759 18.9329 15.4996 19.1879 16.163C19.8277 17.8284 21.0456 18.8671 22.805 19.2845C24.6076 19.7116 26.4005 20.1819 28.1977 20.6349C28.8689 20.8043 29.541 20.9747 30.21 21.1494C30.3224 21.1786 30.4326 21.2239 30.5331 21.281C30.8163 21.4417 31.0076 21.6693 30.9989 22.0145C30.9903 22.3586 30.799 22.6045 30.5018 22.7253C30.1549 22.8666 29.7853 22.9604 29.42 23.0532C27.0922 23.6432 24.7557 24.2019 22.4354 24.821C20.7484 25.2719 19.6483 26.4152 19.109 28.0386C18.8215 28.9015 18.7048 29.8226 18.533 30.7211C18.1245 32.8557 17.7279 34.9935 17.328 37.1302C16.9671 39.0545 16.6104 40.9798 16.2462 42.904C16.203 43.1316 16.1457 43.3614 16.0582 43.576C15.9588 43.8187 15.7837 44.0053 15.4908 44.001C15.1979 43.9967 15.0121 43.8058 14.9353 43.5598C14.8121 43.1683 14.7278 42.7617 14.65 42.3572C14.3355 40.7166 14.0297 39.0739 13.7228 37.4322C13.3975 35.6924 13.0765 33.9526 12.7491 32.2139C12.5037 30.9163 12.3308 29.5993 11.9818 28.3298C11.4641 26.4476 10.2235 25.2191 8.29008 24.738C6.09949 24.1922 3.90999 23.6389 1.72048 23.0877C1.42437 23.0133 1.12717 22.941 0.832142 22.8601C0.719749 22.8299 0.607356 22.79 0.50577 22.7361C0.208576 22.5786 0 22.3499 0 21.9961C0 21.6424 0.194527 21.3759 0.507931 21.267C1.04936 21.0782 1.60809 20.9348 2.16573 20.7935C4.13585 20.293 6.10382 19.7817 8.08259 19.3158C9.28541 19.0332 10.2948 18.4799 11.0632 17.5059C11.6684 16.739 11.9969 15.861 12.1676 14.9053C12.5178 12.952 12.8928 11.0018 13.2581 9.0506C13.6558 6.92248 14.0524 4.79437 14.4512 2.66734C14.5722 2.02233 14.6933 1.3784 14.8229 0.73554C14.9137 0.2836 15.1785 0.00208104 15.4962 -7.61927e-05Z" fill="white"/>
</g>
<defs>
<clipPath id="clip0_0_113">
<rect width="31" height="44" fill="white"/>
</clipPath>
</defs>
</svg>
