<svg width="19" height="26" viewBox="0 0 19 26" fill="none" xmlns="http://www.w3.org/2000/svg">
<g clip-path="url(#clip0_0_116)">
<path d="M9.49768 -9.49608e-05C9.67188 -0.00200705 9.78515 0.0974218 9.83615 0.237005C9.90703 0.430763 9.95604 0.633445 9.99578 0.836127C10.2402 2.08281 10.478 3.33013 10.7204 4.57682C10.9628 5.8235 11.2046 7.07082 11.4556 8.3156C11.5398 8.73116 11.604 9.15883 11.7603 9.55081C12.1524 10.5349 12.8989 11.1487 13.9773 11.3953C15.0821 11.6477 16.181 11.9256 17.2825 12.1933C17.6938 12.2934 18.1058 12.3941 18.5158 12.4973C18.5847 12.5146 18.6523 12.5413 18.7139 12.5751C18.8874 12.6701 19.0046 12.8046 18.9993 13.0085C18.994 13.2118 18.8768 13.3571 18.6946 13.4285C18.482 13.512 18.2555 13.5675 18.0316 13.6223C16.6049 13.9709 15.1728 14.3011 13.7507 14.6669C12.7168 14.9333 12.0425 15.609 11.712 16.5682C11.5358 17.0781 11.4643 17.6224 11.3589 18.1533C11.1086 19.4147 10.8655 20.6779 10.6204 21.9405C10.3992 23.0776 10.1806 24.2153 9.95737 25.3523C9.93087 25.4868 9.89576 25.6226 9.84211 25.7494C9.78117 25.8928 9.67387 26.0031 9.49437 26.0005C9.31487 25.998 9.20094 25.8852 9.15391 25.7399C9.0784 25.5085 9.02674 25.2682 8.97905 25.0292C8.7863 24.0598 8.59885 23.0891 8.41074 22.119C8.21137 21.0909 8.01464 20.0629 7.81394 19.0354C7.66359 18.2687 7.55761 17.4905 7.34366 16.7403C7.02639 15.6281 6.26599 14.9021 5.08102 14.6179C3.7384 14.2953 2.39644 13.9684 1.05449 13.6427C0.873 13.5987 0.690849 13.556 0.510023 13.5082C0.441136 13.4904 0.37225 13.4668 0.309988 13.4349C0.127837 13.3419 0 13.2067 0 12.9977C0 12.7886 0.119226 12.6312 0.311313 12.5668C0.643158 12.4553 0.985602 12.3705 1.32738 12.287C2.53488 11.9913 3.74105 11.6892 4.95384 11.4138C5.69106 11.2468 6.30971 10.9199 6.78065 10.3443C7.15158 9.89116 7.35294 9.37235 7.45759 8.80764C7.6722 7.65338 7.90204 6.50102 8.12592 5.34803C8.36967 4.09051 8.61276 2.83299 8.85717 1.57611C8.93136 1.19496 9.00554 0.814457 9.08503 0.434587C9.14067 0.167532 9.30295 0.00117977 9.49768 -9.49608e-05Z" fill="white"/>
</g>
<defs>
<clipPath id="clip0_0_116">
<rect width="19" height="26" fill="white"/>
</clipPath>
</defs>
</svg>
