<svg width="54" height="50" viewBox="0 0 54 50" fill="none" xmlns="http://www.w3.org/2000/svg">
<path d="M53.2986 49.0427C50.249 46.0216 47.2025 42.9974 44.1219 40.0067C43.5967 39.4976 43.4144 38.9885 43.4206 38.2843C43.4484 34.9735 43.4391 31.6597 43.4298 28.3459C43.4236 26.5868 43.093 24.8766 42.3731 23.276C39.8086 17.5752 35.3253 14.6028 29.0221 14.2857C28.9943 14.0602 28.9541 13.8315 28.9418 13.6059C28.4721 5.89907 22.2339 0.05492 14.3981 0.0183369C9.90867 4.53219e-05 5.4192 0.0244341 0.929732 4.53225e-05C0.262337 -0.00300327 -0.00029503 0.146378 0.00588455 0.862797C0.0367825 5.38996 -0.0466419 9.91712 0.0429621 14.4443C0.148015 19.6909 2.5426 23.7394 7.03516 26.5411C9.30925 27.9587 11.8552 28.5288 14.5217 28.6324C14.5495 28.5593 14.5897 28.5013 14.6422 28.4526C14.4723 26.5899 14.5928 24.7272 14.5743 22.8614C14.5495 20.3433 14.5743 17.8221 14.565 15.304C14.565 14.7461 14.6268 14.3711 15.356 14.3742C19.8393 14.4046 24.3225 14.4046 28.8058 14.4168C28.8645 14.3559 28.9356 14.3101 29.0252 14.2888C28.985 14.3376 28.9387 14.3803 28.8862 14.4168C28.8954 18.8739 28.8862 23.3309 28.9263 27.791C28.9325 28.5196 28.5834 28.5654 28.0118 28.5623C23.5594 28.5471 19.107 28.5501 14.6546 28.5471C14.6113 28.5775 14.5712 28.605 14.5279 28.6324C14.5155 30.1537 14.7535 31.6414 15.254 33.0773C17.3334 39.0403 22.7313 42.845 29.1334 42.8693C32.424 42.8815 35.7146 42.8815 39.0083 42.8602C39.5861 42.8572 39.9971 43.0248 40.4049 43.4303C42.4071 45.4424 44.4371 47.43 46.464 49.4177C46.7143 49.6647 46.912 50 47.3415 50C49.5476 49.997 51.7537 50 54 50C53.8857 49.4878 53.5551 49.2927 53.3048 49.0488L53.2986 49.0427Z" fill="white"/>
</svg>
