<svg width="243" height="49" viewBox="0 0 243 49" fill="none" xmlns="http://www.w3.org/2000/svg">
<g clip-path="url(#clip0_0_74)">
<path d="M66.498 32.5014H75.4341V36.8128H61.0587V9.69849H66.498V32.5014Z" fill="#1C1C1C"/>
<path d="M99.2116 15.295V36.8132H93.7334V34.0943C93.0341 35.0265 92.1225 35.7585 90.9928 36.2874C89.8661 36.8192 88.6408 37.0851 87.3198 37.0851C85.6372 37.0851 84.1459 36.7296 82.8518 36.0155C81.5577 35.3044 80.5386 34.2557 79.8004 32.8693C79.0622 31.486 78.6916 29.8337 78.6916 27.9185V15.295H84.1309V27.1417C84.1309 28.8507 84.5583 30.1654 85.413 31.0856C86.2678 32.0058 87.4334 32.466 88.9097 32.466C90.3861 32.466 91.5905 32.0058 92.4453 31.0856C93.3 30.1654 93.7274 28.8507 93.7274 27.1417V15.295H99.2056H99.2116Z" fill="#1C1C1C"/>
<path d="M137.693 17.4104C139.313 19.0297 140.12 21.2885 140.12 24.1867V36.8102H134.681V24.9247C134.681 23.2425 134.254 21.9548 133.399 21.0614C132.544 20.1681 131.378 19.7199 129.902 19.7199C128.426 19.7199 127.254 20.1681 126.384 21.0614C125.518 21.9548 125.084 23.2425 125.084 24.9247V36.8102H119.645V24.9247C119.645 23.2425 119.218 21.9548 118.363 21.0614C117.508 20.1681 116.343 19.7199 114.866 19.7199C113.39 19.7199 112.18 20.1681 111.313 21.0614C110.443 21.9548 110.01 23.2425 110.01 24.9247V36.8102H104.57V15.295H110.01V17.8974C110.709 16.9921 111.609 16.278 112.711 15.7611C113.811 15.2442 115.025 14.9843 116.346 14.9843C118.028 14.9843 119.532 15.3398 120.853 16.0509C122.173 16.762 123.196 17.7808 123.922 19.1014C124.621 17.8585 125.637 16.8606 126.973 16.1107C128.306 15.3607 129.75 14.9843 131.307 14.9843C133.949 14.9843 136.08 15.7939 137.696 17.4104H137.693Z" fill="#1C1C1C"/>
<path d="M145.657 11.8169C145.024 11.2074 144.704 10.4515 144.704 9.54621C144.704 8.6409 145.021 7.882 145.657 7.27249C146.291 6.66297 147.089 6.36121 148.048 6.36121C149.008 6.36121 149.803 6.66596 150.439 7.27249C151.073 7.882 151.39 8.63791 151.39 9.54621C151.39 10.4545 151.073 11.2104 150.439 11.8169C149.806 12.4264 149.008 12.7312 148.048 12.7312C147.089 12.7312 146.294 12.4264 145.657 11.8169ZM150.726 15.2947V36.8129H145.287V15.2947H150.726Z" fill="#1C1C1C"/>
<path d="M174.233 17.4104C175.814 19.0297 176.603 21.2885 176.603 24.1867V36.8102H171.163V24.9247C171.163 23.2157 170.736 21.901 169.881 20.9838C169.026 20.0635 167.861 19.6034 166.384 19.6034C164.908 19.6034 163.698 20.0635 162.831 20.9838C161.961 21.904 161.528 23.2157 161.528 24.9247V36.8102H156.089V15.295H161.528V17.975C162.254 17.0429 163.181 16.3108 164.304 15.782C165.431 15.2502 166.668 14.9843 168.016 14.9843C170.581 14.9843 172.652 15.7939 174.233 17.4104V17.4104Z" fill="#1C1C1C"/>
<path d="M202.09 15.295V36.8132H196.612V34.0943C195.913 35.0265 195.001 35.7585 193.872 36.2874C192.745 36.8192 191.519 37.0851 190.199 37.0851C188.516 37.0851 187.025 36.7296 185.73 36.0155C184.436 35.3044 183.417 34.2557 182.679 32.8693C181.941 31.486 181.57 29.8337 181.57 27.9185V15.295H187.01V27.1417C187.01 28.8507 187.437 30.1654 188.292 31.0856C189.147 32.0058 190.312 32.466 191.788 32.466C193.265 32.466 194.469 32.0058 195.324 31.0856C196.179 30.1654 196.606 28.8507 196.606 27.1417V15.295H202.084H202.09Z" fill="#1C1C1C"/>
<path d="M240.575 17.4104C242.194 19.0297 243.001 21.2885 243.001 24.1867V36.8102H237.562V24.9247C237.562 23.2425 237.135 21.9548 236.28 21.0614C235.425 20.1681 234.26 19.7199 232.783 19.7199C231.307 19.7199 230.135 20.1681 229.266 21.0614C228.399 21.9548 227.966 23.2425 227.966 24.9247V36.8102H222.526V24.9247C222.526 23.2425 222.099 21.9548 221.244 21.0614C220.389 20.1681 219.224 19.7199 217.747 19.7199C216.271 19.7199 215.061 20.1681 214.194 21.0614C213.324 21.9548 212.891 23.2425 212.891 24.9247V36.8102H207.452V15.295H212.891V17.8974C213.59 16.9921 214.49 16.278 215.593 15.7611C216.692 15.2442 217.906 14.9843 219.227 14.9843C220.909 14.9843 222.413 15.3398 223.734 16.0509C225.055 16.762 226.077 17.7808 226.803 19.1014C227.502 17.8585 228.518 16.8606 229.854 16.1107C231.187 15.3607 232.631 14.9843 234.188 14.9843C236.83 14.9843 238.961 15.7939 240.578 17.4104H240.575Z" fill="#1C1C1C"/>
<path d="M51.5537 48.0651C48.6039 45.1042 45.6571 42.1403 42.6774 39.2093C42.1694 38.7103 41.993 38.2113 41.999 37.5211C42.0259 34.2764 42.0169 31.0286 42.008 27.7809C42.002 26.0569 41.6822 24.3808 40.9859 22.8122C38.5053 17.225 34.1688 14.3119 28.072 14.0011C28.0451 13.78 28.0062 13.556 27.9943 13.3349C27.54 5.78169 21.5059 0.054069 13.9268 0.0182154C9.58427 0.000288559 5.24178 0.024191 0.899294 0.000288559C0.253749 -0.00269925 -0.000285373 0.143703 0.0056919 0.845837C0.0355783 5.28273 -0.0451149 9.71962 0.0415555 14.1565C0.143169 19.2985 2.45936 23.2663 6.80484 26.0121C9.00447 27.4014 11.4671 27.9602 14.0463 28.0618C14.0732 27.99 14.1121 27.9333 14.1629 27.8855C13.9985 26.0599 14.115 24.2344 14.0971 22.4058C14.0732 19.9379 14.0971 17.467 14.0881 14.9991C14.0881 14.4523 14.1479 14.0848 14.8532 14.0878C19.1897 14.1177 23.5263 14.1177 27.8628 14.1296C27.9196 14.0699 27.9883 14.025 28.075 14.0041C28.0361 14.0519 27.9913 14.0938 27.9405 14.1296C27.9494 18.4978 27.9405 22.866 27.9793 27.2371C27.9853 27.9512 27.6476 27.996 27.0947 27.993C22.7881 27.9781 18.4814 27.9811 14.1748 27.9781C14.133 28.008 14.0941 28.0349 14.0523 28.0618C14.0403 29.5527 14.2704 31.0107 14.7546 32.418C16.766 38.2621 21.9871 41.9909 28.1796 42.0148C31.3625 42.0268 34.5454 42.0268 37.7312 42.0058C38.2901 42.0029 38.6876 42.1672 39.0821 42.5646C41.0187 44.5365 42.9823 46.4846 44.9428 48.4326C45.1849 48.6746 45.3762 49.0033 45.7916 49.0033C47.9255 49.0003 50.0594 49.0033 52.2321 49.0033C52.1215 48.5013 51.8017 48.3101 51.5597 48.0711L51.5537 48.0651Z" fill="#1C1C1C"/>
</g>
<defs>
<clipPath id="clip0_0_74">
<rect width="243" height="49" fill="white"/>
</clipPath>
</defs>
</svg>
